<svg width="1001" height="183" viewBox="0 0 1001 183" fill="none" xmlns="http://www.w3.org/2000/svg">
<path d="M162.969 116.388C162.969 78.2118 188.964 50.595 226.152 50.595C256.209 50.595 275.163 66.8402 283.016 91.7495L257.563 99.6013C253.05 83.3561 244.023 73.0675 225.61 73.0675C203.406 73.0675 189.506 90.6665 189.506 116.117V117.381C189.506 142.561 202.504 160.431 224.708 160.431C245.287 160.431 254.223 149.871 258.556 132.543L284.009 140.395C275.615 166.387 256.389 182.903 225.34 182.903C187.34 182.723 162.969 155.377 162.969 116.388Z" fill="black"/>
<path d="M288.342 116.388C288.342 78.2118 314.337 50.595 351.524 50.595C381.581 50.595 400.536 66.8402 408.389 91.7495L382.935 99.6013C378.422 83.3561 369.396 73.0675 350.983 73.0675C328.778 73.0675 314.878 90.6665 314.878 116.117V117.381C314.878 142.561 327.876 160.431 350.08 160.431C370.66 160.431 379.595 149.871 383.928 132.543L409.381 140.395C400.987 166.387 381.762 182.903 350.712 182.903C312.712 182.723 288.342 155.377 288.342 116.388Z" fill="black"/>
<path d="M417.776 130.467V52.761H444.583V129.113C444.583 148.878 453.248 159.709 470.578 159.709C491.699 159.709 501.448 141.658 501.448 113.951V52.761H528.074V180.557H501.448V158.626C498.464 166.117 493.195 172.477 486.389 176.803C479.584 181.129 471.588 183.2 463.538 182.723C434.835 182.723 417.776 162.958 417.776 130.467Z" fill="black"/>
<path d="M576.184 75.2336C578.874 67.5753 583.963 60.989 590.695 56.4528C597.427 51.9166 605.443 49.6723 613.552 50.0534C628.445 50.0534 642.796 57.6346 648.753 77.9411C654.981 61.1544 668.52 50.0534 690.183 50.0534C714.553 50.0534 729.988 68.7354 729.988 100.414V180.557H703.18V101.767C703.18 82.8147 695.057 73.609 679.893 73.609C662.834 73.609 653.086 86.876 653.086 109.078V180.557H626.278V101.767C626.278 82.8147 618.155 73.609 602.991 73.609C587.827 73.609 576.184 86.0637 576.184 109.078V180.557H549.647V52.761H576.184V75.2336Z" fill="black"/>
<path d="M742.173 117.381C742.173 77.8508 768.439 50.5047 804.724 50.5047C842.363 50.5047 864.838 75.6848 864.838 116.027V125.774H768.71C770.335 147.705 784.145 160.972 805.807 160.972C827.47 160.972 836.947 150.413 841.912 137.958L865.47 146.983C856.805 166.748 838.662 182.452 805.897 182.452C766.544 182.723 742.173 156.73 742.173 117.381ZM768.168 105.738H837.489C836.406 83.8074 824.22 72.165 804.182 72.165C784.957 72.2553 770.876 84.9807 768.168 105.829V105.738Z" fill="black"/>
<path d="M872.69 116.93C872.69 77.941 899.227 50.595 936.866 50.595C974.505 50.595 1000.77 77.941 1000.77 116.93C1000.77 155.918 973.963 182.723 936.324 182.723C898.686 182.723 872.69 155.918 872.69 116.93ZM973.963 117.742V116.659C973.963 89.8542 959.612 73.0675 936.866 73.0675C914.12 73.0675 899.498 89.8542 899.498 116.659V117.742C899.498 144.005 913.579 160.25 936.324 160.25C959.07 160.25 973.963 143.734 973.963 117.742Z" fill="black"/>
<path fill-rule="evenodd" clip-rule="evenodd" d="M68.4662 0.776367H100.057L165.948 180.557H137.245L123.862 143.126C118.273 127.291 104.374 117.839 86.7878 116.783C85.6875 116.717 84.5821 116.685 83.4738 116.686C82.3656 116.685 81.2602 116.717 80.1599 116.783C62.5733 117.839 48.1865 127.368 42.5976 143.203L28.6611 180.557H0.770508L68.4662 0.776367ZM78.7181 92.767C80.2963 92.6722 81.8825 92.6259 83.4738 92.6283C85.0652 92.6259 86.6514 92.6722 88.2295 92.767C94.6897 93.1548 101.112 94.3698 107.251 96.4145L83.63 30.3787L59.2275 96.5725C65.5077 94.4323 72.0933 93.1647 78.7181 92.767Z" fill="black"/>
</svg>
